<svg
            id="Group_11"
            data-name="Group 11"
            xmlns="http://www.w3.org/2000/svg"
            xmlns:xlink="http://www.w3.org/1999/xlink"
            viewBox="0 0 344.484 387.233"
          >
            <defs>
              <clipPath id="clip-path">
                <rect
                  id="Rectangle_76"
                  data-name="Rectangle 76"
                  width="344.484"
                  height="387.233"
                  fill="none"
                />
              </clipPath>
            </defs>
            <g id="Group_10" data-name="Group 10" clip-path="url(#clip-path)">
              <path
                id="Path_174"
                data-name="Path 174"
                d="M344.484,18.356A18.41,18.41,0,0,0,326.128,0H18.356A18.41,18.41,0,0,0,0,18.356V271.739c0,10.1,7.095,22.586,15.768,27.754l140.706,83.863c8.672,5.169,22.863,5.169,31.536,0l140.706-83.863c8.672-5.168,15.768-17.658,15.768-27.754Z"
                fill="#edefce"
              />
              <path
                id="Path_175"
                data-name="Path 175"
                d="M173.709,71.739a4.8,4.8,0,0,1,2.6-2.6l4.208-1.469c1.059-.37,1.06-.975,0-1.345l-4.21-1.473a4.8,4.8,0,0,1-2.6-2.6l-1.472-4.214c-.37-1.059-.976-1.059-1.347,0l-1.473,4.21a4.814,4.814,0,0,1-2.6,2.6l-4.211,1.475c-1.058.371-1.058.976,0,1.346l4.213,1.47a4.8,4.8,0,0,1,2.6,2.6l1.471,4.211c.37,1.059.976,1.059,1.346,0Z"
                fill="#272b2a"
              />
              <path
                id="Path_176"
                data-name="Path 176"
                d="M201.572,62.4a4.806,4.806,0,0,1,2.6-2.6l4.209-1.471c1.059-.37,1.059-.976,0-1.347l-4.209-1.472a4.8,4.8,0,0,1-2.6-2.6L200.1,48.7c-.37-1.059-.976-1.059-1.346,0l-1.474,4.21a4.809,4.809,0,0,1-2.6,2.6l-4.21,1.472c-1.059.371-1.059.977,0,1.347l4.213,1.472a4.8,4.8,0,0,1,2.6,2.6l1.471,4.209c.371,1.059.976,1.059,1.346,0Z"
                fill="#272b2a"
              />
              <path
                id="Path_177"
                data-name="Path 177"
                d="M146.637,81.081a4.8,4.8,0,0,1,2.6-2.6l4.209-1.471c1.059-.37,1.059-.976,0-1.346l-4.209-1.47a4.8,4.8,0,0,1-2.6-2.6l-1.47-4.21c-.37-1.059-.976-1.059-1.346,0l-1.474,4.21a4.807,4.807,0,0,1-2.6,2.6l-4.209,1.472c-1.059.37-1.059.976,0,1.346l4.213,1.473a4.806,4.806,0,0,1,2.6,2.6l1.471,4.207c.371,1.059.976,1.059,1.346,0Z"
                fill="#272b2a"
              />
              <path
                id="Path_178"
                data-name="Path 178"
                d="M87.153,55.8c-.456-1.025-.83-.945-.83.176V72.292a10.57,10.57,0,0,0,.892,3.874l9.759,20.059c.49,1.008.334,1.105-.348.214l-36.814-48.1c-.681-.891-1.126-.709-.988.4L60.99,66.177a8.769,8.769,0,0,0,1.5,3.633l35.6,45.711c.69.885.625.94-.143.122L49.778,64.355c-.768-.817-1.183-.594-.923.5L52.926,81.9a8.634,8.634,0,0,0,1.907,3.435l36.182,36.618c.789.8.73.862-.131.143L43.519,82.523c-.861-.719-1.177-.476-.7.54L50.029,98.5a9.254,9.254,0,0,0,2.521,3.036L87.5,126.6c.912.653.856.742-.124.2l-44.58-24.83c-.98-.546-1.328-.194-.774.781l6.454,11.35a7.633,7.633,0,0,0,2.849,2.65l33.484,15.967c1.012.483.968.592-.1.243L40.6,118.5c-1.066-.35-1.357.075-.647.943l8.238,10.068a7.1,7.1,0,0,0,3.275,2.055l31.944,7.673c1.09.262,1.065.5-.056.52l-32.619.7c-1.121.024-1.285.568-.365,1.209l9.04,6.291a7.4,7.4,0,0,0,3.713,1.13l23.365-.4c1.122-.019,1.131.092.02.246l-29.832,4.143c-1.111.155-1.233.752-.27,1.328l10.927,6.532a6.041,6.041,0,0,0,3.747.629l20-4.184c1.1-.23,1.129-.117.068.249l-25.155,8.7c-1.06.366-1.111,1.084-.112,1.6l10.167,5.2a5.758,5.758,0,0,0,3.763.32l16.652-5.211c1.071-.335,1.115-.221.1.254L76.419,177.9c-1.017.475-1.049,1.314-.072,1.865l8.679,4.9a4.78,4.78,0,0,0,3.665.231l14.264-5.827c1.038-.424,1.082-.331.1.206L84.517,189.39c-.985.537-.919,1.264.147,1.614l8.044,2.646a6.31,6.31,0,0,0,3.815-.16l12.868-5.464c1.033-.438,1.087-.331.12.239L92.8,198.114c-.967.569-.869,1.264.218,1.543l7.65,1.965a5.794,5.794,0,0,0,3.745-.507l10.421-5.972c.973-.558,1.031-.47.128.2L99.739,206.563c-.9.666-.758,1.46.322,1.764l7.209,2.03a4.758,4.758,0,0,0,3.61-.649l10.034-7.321c.906-.661.982-.57.169.2l-12.727,12.091c-.813.773-.581,1.594.517,1.824l5.733,1.2a5.075,5.075,0,0,0,3.616-.82l9.466-7.246c.89-.682.992-.57.224.248L116.74,221.812c-.767.819-.481,1.568.637,1.666l4.878.428a4.707,4.707,0,0,0,3.415-1.321l8.524-9.235c.761-.824.858-.746.217.175l-9.586,13.748c-.642.92-.249,1.691.873,1.713l3.919.076a4.047,4.047,0,0,0,3.135-1.68l6.9-10.831c.6-.946.72-.883.259.14l-6.795,15.1c-.46,1.023.032,1.564,1.094,1.2l3.511-1.2a6.574,6.574,0,0,0,2.995-2.4l6.024-9.85c.586-.957.7-.9.257.133l-5.755,13.349c-.444,1.03.074,1.616,1.151,1.3l4.709-1.371a5.5,5.5,0,0,0,2.9-2.378l3.6-6.891c.52-.994,1.36-.989,1.867.012l5.054,9.973A2.976,2.976,0,0,1,160,236.93a85.844,85.844,0,0,1-19.245,13.31,271.981,271.981,0,0,1-26.935,11.539c-1.056.381-1.056,1.006,0,1.388l10.432,3.784a5.4,5.4,0,0,0,3.736-.228l28.2-14.306c1-.507,1.069-.393.152.253l-32.892,23.211c-.916.647-.75,1.233.369,1.3l11.141.69a5.634,5.634,0,0,0,3.558-1.23l20.009-17.83c.837-.746.949-.64.248.236l-21.916,27.395c-.7.876-.363,1.48.75,1.342l8.653-1.07a4.768,4.768,0,0,0,3.08-1.995l13.259-21.915c.581-.959.679-.908.218.115l-13.377,29.684c-.461,1.023.034,1.576,1.1,1.229l8.664-2.816a4.4,4.4,0,0,0,2.533-2.582l6.97-22.916c.326-1.073.463-1.043.305.068l-3.5,24.507a5.283,5.283,0,0,0,1.011,3.591l4.143,5.011a1.627,1.627,0,0,0,2.6,0l4.143-5.011a5.284,5.284,0,0,0,1.012-3.591l-3.5-24.507c-.159-1.111-.021-1.141.305-.068l6.966,22.916a4.4,4.4,0,0,0,2.533,2.581l8.67,2.817c1.067.347,1.563-.206,1.1-1.229l-13.382-29.684c-.461-1.023-.363-1.074.218-.115l13.259,21.915a4.768,4.768,0,0,0,3.08,1.995l8.653,1.07c1.113.138,1.451-.466.75-1.342l-21.912-27.395c-.7-.876-.589-.982.249-.236l20,17.829a5.631,5.631,0,0,0,3.559,1.231l11.14-.69c1.12-.069,1.286-.655.369-1.3L187.584,252.67c-.917-.646-.848-.76.152-.253l28.2,14.306a5.4,5.4,0,0,0,3.736.228l10.44-3.784c1.054-.383,1.054-1.007,0-1.388a271.727,271.727,0,0,1-26.936-11.539,85.9,85.9,0,0,1-19.247-13.311,2.974,2.974,0,0,1-.533-3.248l5.056-9.973c.508-1,1.348-1.006,1.867-.011l3.6,6.89a5.5,5.5,0,0,0,2.9,2.378l4.711,1.371c1.077.313,1.6-.273,1.151-1.3l-5.755-13.349c-.444-1.03-.328-1.09.257-.133l6.024,9.85a6.58,6.58,0,0,0,2.994,2.4l3.51,1.194c1.062.362,1.554-.179,1.094-1.2l-6.793-15.1c-.46-1.023-.344-1.086.259-.14l6.9,10.831a4.047,4.047,0,0,0,3.135,1.68l3.92-.076c1.121-.022,1.514-.793.872-1.713l-9.585-13.748c-.642-.921-.544-1,.217-.175l8.524,9.235a4.7,4.7,0,0,0,3.415,1.321l4.875-.428c1.118-.1,1.4-.848.638-1.666l-11.167-11.92c-.767-.819-.666-.931.225-.249l9.462,7.245a5.067,5.067,0,0,0,3.615.821l5.729-1.2c1.1-.23,1.331-1.051.518-1.824L222.837,202.59c-.813-.773-.737-.864.17-.2l10.037,7.321a4.76,4.76,0,0,0,3.611.649l7.209-2.03c1.079-.3,1.224-1.1.321-1.764L228.96,195.339c-.9-.666-.846-.754.128-.2l10.42,5.972a5.8,5.8,0,0,0,3.745.507l7.655-1.965c1.086-.279,1.184-.973.218-1.543l-16.719-9.849c-.967-.57-.913-.677.12-.239L247.4,193.49a6.31,6.31,0,0,0,3.815.16L259.257,191c1.065-.35,1.132-1.077.147-1.614l-18.532-10.12c-.985-.537-.941-.63.1-.206l14.257,5.827a4.778,4.778,0,0,0,3.664-.231l8.68-4.9c.977-.551.944-1.39-.072-1.865l-20.142-9.409c-1.016-.475-.972-.589.1-.254l16.65,5.211a5.765,5.765,0,0,0,3.763-.319l10.169-5.2c1-.511.949-1.229-.111-1.6l-25.155-8.7c-1.06-.366-1.029-.479.069-.249l20,4.184a6.041,6.041,0,0,0,3.747-.629l10.928-6.532c.963-.576.842-1.173-.269-1.328l-29.833-4.143c-1.111-.154-1.1-.265.019-.246l23.367.4a7.41,7.41,0,0,0,3.713-1.13l9.039-6.291c.921-.641.757-1.185-.365-1.209l-32.619-.7c-1.122-.024-1.147-.258-.056-.52l31.948-7.673a7.092,7.092,0,0,0,3.274-2.055l8.238-10.068c.71-.868.42-1.293-.646-.943l-44.114,14.464c-1.066.349-1.11.24-.1-.243L292.6,116.751a7.62,7.62,0,0,0,2.849-2.651l6.451-11.349c.554-.975.206-1.327-.775-.781L256.544,126.8c-.98.546-1.036.457-.125-.2l34.951-25.067a9.254,9.254,0,0,0,2.521-3.036L301.1,83.063c.474-1.016.159-1.259-.7-.54L253.037,122.1c-.861.719-.92.655-.132-.143l36.18-36.618a8.634,8.634,0,0,0,1.907-3.435l4.073-17.047c.261-1.091-.155-1.314-.923-.5l-48.174,51.288c-.768.818-.832.763-.143-.122l35.6-45.711a8.754,8.754,0,0,0,1.5-3.633l2.167-17.438c.138-1.113-.307-1.295-.989-.4l-36.814,48.11c-.682.891-.838.795-.348-.214L256.7,76.166a10.549,10.549,0,0,0,.892-3.874V55.975c0-1.121-.373-1.2-.83-.176l-28.491,63.967a13.937,13.937,0,0,0-1.2,6.785c1.243,15.336-8.788,35.455-16.129,42.576-13.362,12.961-24.568,14-24.568,14a2.339,2.339,0,0,1-2.442-1.81l-2.627-12.784a11.009,11.009,0,0,0-1.626-3.636l-1.177-1.586a10.739,10.739,0,0,1-1.608-3.639,100.431,100.431,0,0,1-1.486-11.017,42.86,42.86,0,0,0-2.7-10.966c-.416-1.042-1.1-1.042-1.514,0a42.713,42.713,0,0,0-2.694,10.966,100.583,100.583,0,0,1-1.487,11.017,10.741,10.741,0,0,1-1.609,3.639l-1.176,1.586a10.969,10.969,0,0,0-1.626,3.636l-2.628,12.784a2.338,2.338,0,0,1-2.441,1.81s-11.2-1.035-24.567-14c-7.338-7.12-17.374-27.238-16.128-42.574a13.941,13.941,0,0,0-1.2-6.789Z"
                fill="#272b2a"
              />
            </g>
          </svg>