<svg id="Layer_2" xmlns="http://www.w3.org/2000/svg" viewBox="0 0 433.88 353.06"><defs><style>.cls-1{fill:#f6f6f6}.cls-2{fill:#e8e8e8}.cls-3{fill:#bcbcbc}.cls-4{fill:#ae1515}.cls-5{fill:#111}</style></defs><path class="cls-2" d="m330.91 342.65-11.54-17.38a6.378 6.378 0 0 0-5.31-2.85h-61.51v-30.14h-71.23v30.14h-61.51c-2.14 0-4.13 1.07-5.31 2.85l-11.54 17.38c-2.81 4.24.23 9.9 5.31 9.9H325.6c5.09 0 8.13-5.66 5.31-9.9Z"/><path class="cls-3" d="M325.6 353.06H108.28c-2.58 0-4.84-1.36-6.06-3.63s-1.1-4.91.33-7.05L114.09 325a6.858 6.858 0 0 1 5.73-3.08h61.01v-30.14h72.23v30.14h61.01c2.31 0 4.45 1.15 5.73 3.08l11.54 17.38c1.42 2.15 1.55 4.78.33 7.05-1.22 2.27-3.48 3.63-6.06 3.63Zm-205.79-30.14c-1.97 0-3.81.98-4.9 2.63l-11.54 17.38c-1.22 1.83-1.32 4.09-.28 6.03s2.98 3.1 5.18 3.1H325.6c2.2 0 4.14-1.16 5.18-3.1 1.04-1.94.94-4.19-.28-6.03l-11.54-17.38a5.85 5.85 0 0 0-4.9-2.63h-62.01v-30.14h-70.23v30.14h-62.01Z"/><rect class="cls-2" x=".5" y=".5" width="432.88" height="291.78" rx="11.9" ry="11.9"/><path class="cls-3" d="M421.48 292.78H12.4c-6.84 0-12.4-5.56-12.4-12.4V12.4C0 5.56 5.56 0 12.4 0h409.08c6.84 0 12.4 5.56 12.4 12.4v267.98c0 6.84-5.56 12.4-12.4 12.4ZM12.4 1C6.11 1 1 6.11 1 12.4v267.98c0 6.29 5.11 11.4 11.4 11.4h409.08c6.29 0 11.4-5.11 11.4-11.4V12.4c0-6.29-5.11-11.4-11.4-11.4H12.4Z"/><path class="cls-5" d="M433.38 249.82V12.4c0-6.57-5.33-11.9-11.9-11.9H12.4C5.83.5.5 5.83.5 12.4v237.42h432.88Z"/><path class="cls-4" d="M21.05 22.42h391.78v208.22H21.05z"/><path class="cls-3" d="m181.32 319.71 71.24-27.43h-71.24v27.43zM323.13 349.25H109.7c-5.47 0-7.48-.95-7.77-3.69-.34 3.54 2.37 7 6.34 7H325.6c3.56 0 6.11-2.78 6.36-5.91-2.26 2.58-6 2.6-8.83 2.6Z"/><path class="cls-1" d="M227.14 187.49c-3.29.22-6.7.33-10.21.33-19.54 0-37.54-4.83-54-14.49-16.24-9.44-29.09-22.17-38.53-38.2-1.54-2.41-2.31-5.05-2.31-7.9s.77-5.49 2.31-7.9c7.9-13.61 18.44-24.92 31.61-33.92l18.77 27a42.963 42.963 0 0 0-2.63 14.82c0 8.12 1.98 15.59 5.93 22.39s9.33 12.24 16.14 16.3c6.81 4.06 14.27 6.09 22.39 6.09l10.54 15.48Zm63.22-28.32c-7.68 7.02-16.14 12.84-25.36 17.45l13.83 19.43c1.1 1.76 1.48 3.73 1.15 5.93s-1.37 3.84-3.13 4.94l-4.28 3.29c-1.76 1.1-3.73 1.48-5.93 1.15s-3.95-1.37-5.27-3.13L155.03 58.41c-1.1-1.76-1.48-3.73-1.15-5.93s1.37-3.84 3.13-4.94l4.28-3.29c1.76-1.1 3.73-1.48 5.93-1.15s3.95 1.37 5.27 3.13l16.79 24.04c9-2.41 18.22-3.62 27.66-3.62 19.54 0 37.54 4.83 54 14.49 16.24 9.44 29.09 22.17 38.53 38.2 1.54 2.41 2.31 5.05 2.31 7.9s-.77 5.49-2.31 7.9c-5.05 9-11.42 17.01-19.1 24.04Zm-107.68-35.23c-.66 8.56 1.43 16.24 6.26 23.05s11.31 11.31 19.43 13.5l-25.68-36.55Zm72.94-19.1c-4.06-6.81-9.49-12.24-16.3-16.3s-14.27-6.09-22.39-6.09c-5.71 0-11.31 1.1-16.79 3.29l6.59 8.89c4.17-1.32 8.56-1.81 13.17-1.48s9 1.59 13.17 3.79c-3.95 0-7.3 1.37-10.04 4.12s-4.12 6.09-4.12 10.04 1.37 7.3 4.12 10.04 6.09 4.12 10.04 4.12 7.3-1.37 10.04-4.12 4.12-6.09 4.12-10.04c3.07 5.71 4.39 11.85 3.95 18.44s-2.63 12.62-6.59 18.11l6.26 8.89c7.24-8.34 10.87-18.11 10.87-29.31 0-8.12-2.03-15.59-6.09-22.39Z"/></svg>